<?xml version="1.0" encoding="utf-8"?>
<!-- Generator: Adobe Illustrator 23.0.1, SVG Export Plug-In . SVG Version: 6.00 Build 0)  -->
<svg version="1.1" id="Capa_1" xmlns="http://www.w3.org/2000/svg" xmlns:xlink="http://www.w3.org/1999/xlink" x="0px" y="0px"
	 viewBox="0 0 194.12 194.12" style="enable-background:new 0 0 194.12 194.12;" xml:space="preserve">
<style type="text/css">
	.st0{opacity:0.9;}
	.st1{fill:#E1DDC5;}
	.st2{fill:#E4E1CB;}
	.st3{fill:#E8CCFF;}
</style>
<g>
	<g class="st0">
		<path class="st1" d="M107.99,162.9c13.97-8.91,21.07-19.34,28.95-30.08c4.7-6.41,9.49-12.98,12.17-20.46
			c3.97-11.07,2.81-23.24-1.82-32.95s-12.48-17.08-21.39-22.28c-5.95-3.47-12.68-6.07-19.81-5.34
			c-15.62,1.61-27.36,17.84-36.63,32.4c-3.69,5.79-7.38,11.59-11.07,17.38c-3.84,6.02-7.71,12.13-10.07,18.84
			c-6.03,17.2-0.26,36.78,12.92,45.87C74.42,175.37,93.78,173.7,107.99,162.9"/>
		<g>
			<g>
				<g>
					<g>
						<polygon class="st2" points="105.82,160.04 105.57,159.96 105.59,160.64 						"/>
						<path class="st2" d="M104.41,162.55c0.12,0.04,0.18,0.2,0.3,0.24c0.13-0.74,0.24-1.47,0.34-2.19
							C104,160.24,105.13,162.77,104.41,162.55z"/>
						<path class="st2" d="M103.95,162.68c-0.71,0-0.52,0.76-0.51,1.05C103.31,163.12,104.51,163.29,103.95,162.68z"/>
						<path class="st2" d="M56.26,158.75c0.03,0.04,0.1,0.08,0.16,0.11C56.37,158.78,56.31,158.75,56.26,158.75z"/>
						<path class="st2" d="M47.48,147.41l-0.62,0.03c0.47,0.58,0.82,1.21,1.09,1.88c0.29,0.66,0.58,1.34,0.82,2.04
							c0.44,1.42,1.09,2.8,1.94,4l-0.27-0.07c1.73,3.3,4.12,6.07,6.88,8.3c2.77,2.23,5.89,3.9,9.24,5.14
							c-0.13,0.01-0.23,0.15-0.36,0.16c0.39-0.02,0.9-0.25,1.24-0.06c0.04,0.16-0.21,0.22-0.35,0.23c0.52,0.71,1.62,1.04,2.67,1.16
							c1.06,0.12,2.03,0.18,2.4,0.68c0.45-0.02,0.72-0.38,0.56-0.73c2.71,0.51,5.56,0.67,8.39,0.55c2.83-0.24,5.65-0.73,8.25-1.7
							c0.29,0.08,0.39,0.34,0.39,0.68c1.07-0.65,2.15-1.22,3.25-1.69c1.07-0.56,2.2-0.93,3.3-1.42c1.1-0.48,2.24-0.86,3.33-1.38
							l1.66-0.72l1.6-0.84c-0.06-0.45-0.65-0.13-0.47-0.74c-0.79,0.15-1.22,0.77-1.73,1.27c-0.5,0.51-1.01,0.99-1.79,0.96
							l-0.02-0.44c-1,0.2,0.27,1.04-0.91,0.99c-0.52-0.15-0.12-0.51-0.31-0.46c-1.88,1.01-4.03,1.43-5.7,2.9
							c-0.71-0.74-2.23,0.6-3.18-0.13c-0.47,0.44-1.02,0.46-1.13,1.07c-3.73,0.39-7.48,0.6-11.25,0.26
							c-3.75-0.34-7.53-1.26-10.88-3.05c-1.98-0.06-3.68-1.26-5.14-2.72c-0.76-0.7-1.38-1.59-2.11-2.35
							c-0.68-0.81-1.35-1.64-2.17-2.34c0.03-0.06,0.08-0.1,0.14-0.11c-0.58-0.42-1.21-1.02-1.81-1.7c-0.59-0.68-1.04-1.51-1.41-2.27
							c-0.47-0.27-0.9-0.58-1.33-0.9c-1.74-4.89-3.17-9.82-3.67-14.97c-0.5-5.1-0.27-10.41,1.44-15.27c1.75-5.56,4.79-10.26,7.73-15
							c2.99-4.73,5.9-9.65,8.14-15.28c0.13,0.1,0.26,0.07,0.15,0.37c1.56-3.09,3.76-5.4,5.2-8.32l0.14,0.1
							c1.56-3.75,3.89-7.21,6.32-10.52c2.44-3.32,4.96-6.45,7.01-9.78c3.24-3.36,6.96-6.72,11.27-9.3c4.32-2.49,9.29-4.18,14.29-4.1
							l-0.04,0.34c3.97-0.18,7.77,1.26,11.15,3.09c3.4,1.87,6.53,4.13,9.86,6.21c3.02,2.67,6.39,5.05,9.47,7.93
							c1.53,1.44,2.99,2.99,4.23,4.7c1.23,1.71,2.24,3.58,2.89,5.55c0.34,2.64,1.76,5.15,2.92,7.89c1.16,2.7,2.02,5.63,1.31,8.09
							c-1,5-1.77,9.55-2.8,14.18c-1.04,4.6-2.54,9.28-4.56,13.9c-2.84,3.62-5.27,7.47-7.74,11.26c-2.46,3.78-5.03,7.51-8.57,10.35
							c-0.86,2-2.6,3.45-4.49,4.78c-1.9,1.32-3.92,2.52-5.51,4.18l0.4,0.2c-2.03,0.16-1.65,3.79-3.66,3l0.08-0.17
							c-1.27-0.22-0.23,3.03-1.35,2.47l0.17,0.47c-0.8,0.74-0.42-0.35-1.21-0.02c-0.22,0.23,0.41,0.76-0.28,0.93
							c-0.62-0.75-1.09-0.27-1.57,0.16c-0.5,0.42-1.01,0.81-1.64-0.07c0.48-0.32-1.21-0.2-0.4-1.29c-0.43,0.02-1.81,1.07-1.19,1.76
							c0.4,0.9,0.26,2.01,1.59,2.05l-0.2-0.72c0.7,0.39,0.43,0.14,0.83,0.52c1.25-0.73,2.01,0.04,3.12-0.22
							c-0.02-0.01-0.04-0.02-0.05-0.06c0.09-1.12,1.19-1.28,1.73-1.52l0.42,0.18c0.78,0.45,0.34-2.32,0.85-0.91
							c2.16-2.1,4.76-4.32,7.11-6.69c-0.04-0.7,1.81-1.78,0.56-1.99c1.44,0.25,3.35-1.38,3.92-2.1c0.06,0.1,0.13,0.21,0,0.29
							c2.34-0.35,0.31-2.51,2.81-2.59c-0.85-1.04,2.25-2.09,1.59-3.8c0.36,0.02,0.61,0.13,0.75,0.33c1.86-2.33,4.17-4.69,5.68-6.65
							c0.3-2.4,3.45-3.81,3.22-6.25c1.16-1.02,3.16-2.67,3.82-4.84l0.05,0.29c1.28-2.07,2.83-4.78,2.73-6.76
							c1.7,0.09,1.94-1.02,2.86-1.79c0.05-0.92,0.46-2.13,0.88-3.47c0.41-1.34,0.78-2.82,0.85-4.14c0.79-0.19,0.26-2.12,1.29-2.01
							c-0.14-3.8-0.01-7.72,0-11.76c0-4.03-0.08-8.17-0.46-12.13l0.1,0.09c-0.81-0.83-2.39-1.52-3.39-2.2
							c0.05-0.12,0.22-0.17,0.28,0.03c-0.65-1.2-0.19-2.78-0.95-3.96c0.16-0.06,0.16-0.06,0.4,0.07c-0.95-0.97-0.44-2.81-1.92-3.77
							l0.19-0.21c-0.27-0.22-0.54-0.44-0.83-0.65c0.3-0.16,0.77-0.39,0.94,0.12c-2.93-5.31-7.34-9.76-12.21-13.34
							c-2.44-1.8-5-3.39-7.63-4.85c-2.62-1.46-5.3-2.83-8.11-4.01l0.54-0.13c-0.81-0.12-1.62-0.22-2.42-0.29
							c0.07-0.16,0.2-0.2,0.33-0.23c-1.34-0.77-2.89-1.11-4.43-1.27c-1.55-0.17-3.1-0.13-4.59-0.27c0.02-0.17,0.49-0.48,0.07-0.68
							c-0.57,0.21-1.08,0.24-1.54,0.22c-0.46-0.04-0.89-0.14-1.28-0.19c-0.78-0.14-1.44-0.09-1.85,0.97
							c-0.11-0.07-0.25-0.49-0.04-0.68c-6.17,1.48-11.68,4.54-16.56,8.12c-0.68,1.16-1.52,2.13-2.35,3.13
							c-0.43,0.49-0.87,0.96-1.33,1.43c-0.44,0.48-0.89,0.96-1.34,1.44c-1.82,1.89-3.54,3.92-4.57,6.32l-0.26-0.24
							c-1.53,2.97-3.5,5.66-5.52,8.39c-2.01,2.73-4.08,5.48-5.78,8.39c-1.63,2.29-2.29,4.11-3.79,6.49l-0.41-0.17
							c-1.14,4.9-6.63,7.59-7.71,12.77l-0.32-0.6c0.37,1.13-1.84,2.4-0.34,2.96l-0.86,0.51c0.05,1.98-0.9,3.16-1.94,4.45
							c-1.03,1.28-2.19,2.68-2.36,4.84l-0.24-0.39c-0.16,1.13-0.4,2.39-0.97,3.04c-0.01-0.14-0.14-0.12-0.14-0.4
							c-1.2,1.41-1.79,3.21-1.92,5.1l-0.12,1.41c-0.03,0.47,0,0.95-0.01,1.41c0.01,0.94-0.09,1.85-0.14,2.76l-0.67-0.48
							c0.36,0.93,0.27,2.17,0.19,3.49c-0.01,0.66-0.04,1.34-0.03,2c0,0.33,0.01,0.66,0.03,0.97c0.04,0.31,0.1,0.62,0.17,0.9
							l-0.34-0.12l0.56,1.14l-0.65,0.09c0.07,1.53,0.52,2.97,0.89,4.39c0.22,0.7,0.49,1.39,0.72,2.09
							C46.99,146.03,47.22,146.72,47.48,147.41z"/>
						<path class="st2" d="M67.09,169.06c-0.01-0.01-0.02-0.01-0.02-0.03C66.97,169.05,67.01,169.06,67.09,169.06z"/>
						<path class="st2" d="M112.94,163.2c-0.14,0.05-0.26,0.09-0.39,0.11C112.66,163.41,112.83,163.25,112.94,163.2z"/>
					</g>
				</g>
			</g>
		</g>
	</g>
	<g>
		<path class="st3" d="M77.67,70.82C76,68.56,74.08,66.44,72,64.58c-1.65-1.48-3.47-2.88-5.43-3.96c-1.36-0.78-2.79-1.39-4.3-1.82
			c-3.11,0.98-6.22,1.96-9.33,2.93c-3.02,6.04,5.88,16.03,9.73,19.6c7.27,6.74,17.87,11.54,27.54,8.76c-2.29-2.68-4.19-5.67-6-8.73
			C81.83,77.97,79.58,74.51,77.67,70.82z"/>
		<path class="st3" d="M86.48,78.71c2.14,3.08,4.42,6.05,6.67,9.07c-0.1-6.44,0.75-12.88-0.65-19.39
			c-0.81-3.76-1.38-7.66-2.51-11.34c-0.55-1.77-1.2-3.47-2.06-5.11c-1.58-3.02-1.91-4.03-5.53-3.78
			c-10.83,0.75-3.14,18.24-0.28,23.54C83.63,73.98,85.04,76.35,86.48,78.71z"/>
		<path class="st3" d="M112.94,49.31c-1.37,0.53-2.99,2.06-4.07,2.99c-3.93,3.39-6.08,8.31-7.72,13.14
			c-1.71,5.02-3.4,11.32-4.04,17.38c-0.12,2.24-0.21,4.48-0.14,6.7c0.73-1.07,1.51-2.11,2.41-3.07c2.74-2.91,5.46-5.33,7.6-8.74
			c4.25-6.76,11.77-15.93,10.74-24.46C117.36,50.24,116.89,47.79,112.94,49.31z"/>
		<g>
			<path d="M92.36,89.46c-10.25,4.33-21.97-0.71-29.81-7.97c-3.85-3.57-12.75-13.56-9.73-19.6c3.11-0.98,6.22-1.96,9.33-2.93
				c1.51,0.43,2.94,1.04,4.3,1.82c1.96,1.07,3.77,2.48,5.43,3.96c2.5,2.23,4.77,4.82,6.65,7.59c4.42,6.51,7.65,14.17,13.3,19.81
				c0.79,0.79,4.34,0.1,3.46-1.12c-4.52-6.33-9.49-12.16-13.24-19.05c-2.81-5.17-10.68-22.9,0.22-23.65
				c3.62-0.25,3.95,0.75,5.53,3.77c0.86,1.65,1.51,3.34,2.06,5.11c1.14,3.68,1.7,7.58,2.51,11.34c1.83,8.51-0.17,16.86,1.09,25.29
				c1.23-0.22,2.45-0.44,3.68-0.66c-1.5-8.4,1.17-19.6,3.89-27.58c1.64-4.83,3.79-9.75,7.72-13.14c1.08-0.93,2.7-2.46,4.07-2.99
				c3.95-1.52,4.42,0.93,4.79,3.95c1.03,8.53-6.5,17.7-10.74,24.46c-2.14,3.41-4.87,5.83-7.6,8.74c-3.04,3.24-4.75,7.34-7.62,10.67
				c1.13-0.13,2.27-0.25,3.4-0.38c-0.06-0.12-0.11-0.23-0.17-0.35c-0.53-1.06-4.13-0.21-3.46,1.12c0.06,0.12,0.11,0.23,0.17,0.35
				c0.51,1.01,2.87,0.24,3.4-0.38c3.92-4.56,6.68-9.56,10.98-13.91c4.11-4.16,7.13-9.9,10.06-14.95
				c2.69-4.64,10.14-19.14,1.44-22.21c-6.13-2.17-13.96,6.62-16.53,11.14c-3.26,5.76-5.01,12.2-6.15,18.69
				c-0.99,5.58-2.32,11.79-1.32,17.43c0.23,1.27,3.87,0.64,3.68-0.66c-0.89-5.94,0.34-12.09-0.05-18.1
				c-0.38-5.84-1.72-12.2-3.34-17.84c-1.63-5.67-5.54-14.62-12.96-12.33c-7.7,2.38-8.7,11.85-6.53,18.35
				c3.67,11.03,10.93,19.6,17.56,28.88c1.15-0.37,2.31-0.75,3.46-1.12c-9.24-9.23-12.53-22.65-23.62-30.33
				c-5.41-3.74-17.49-7.32-21.91,0.13c-5.06,8.52,7.96,21.38,13.91,25.58c4.91,3.46,11.9,6.28,17.86,7.01
				c4.96,0.6,8.51-0.79,12.98-2.68C96.73,89.78,93.6,88.94,92.36,89.46L92.36,89.46z"/>
		</g>
		<g>
			<path d="M71.8,61.71c-0.02,0.13-0.04,0.26-0.06,0.39c1.18-0.21,2.36-0.42,3.55-0.63c-2.18-2.21-2.75-6.13-3.49-9.06
				c-0.99-3.93-1.59-7.96-2.38-11.94c-0.26-1.28-3.93-0.61-3.68,0.66c0.89,4.45,1.57,8.93,2.75,13.31c0.74,2.75,1.27,6.05,3.34,8.15
				c0.68,0.69,3.35,0.55,3.55-0.63c0.02-0.13,0.04-0.26,0.06-0.39C75.66,60.12,71.99,60.5,71.8,61.71L71.8,61.71z"/>
		</g>
		<g>
			<path d="M65.58,35.71c-1.9,1.04-2.77,3.42-2.25,5.53c0.59,2.37,3.32,2.96,5.24,1.67c2.02-1.36,2.03-4.6,1.27-6.65
				c-0.83-2.24-3.28-2.93-5.38-2c-2.5,1.1-2.49,4.28-2.25,6.61c0.28,2.73,2.25,3.6,4.85,3.33c2.19-0.22,4.54-1.49,4.94-3.84
				c0.4-2.34-1.28-4.22-3.26-5.18c-4.34-2.11-10.25-0.21-10.45,5.14c-0.2,5.38,6.54,8.39,11.12,6.73c4.59-1.67,3.77-8.32,0.41-10.84
				c-1.74-1.3-4.54-1.5-6.21,0.08c-1.1,1.05-1.48,4.15-0.52,5.4c1.24,1.61,4.53,0.14,5.3-1.34c0.76-1.46,0.49-3.79-1.31-4.25
				c-1.99-0.51-4.92,1.17-4.13,3.49c0.92,2.68,4.54,1.69,6.05,0.26c0.65-0.62-0.42-1.06-0.88-1.14c-0.86-0.14-1.83,0.19-2.46,0.78
				c1.36,0.24,1.7,0.09,1.04-0.45c-0.19-0.32-0.24-0.67-0.15-1.04c-1.67-0.63-2.24-0.63-1.7,0c0.07,0.13,0.11,0.26,0.14,0.41
				c-0.05,0.36,0.14,0.78,0.07,1.18c-0.13,0.82-0.69,0.79,0.24,0.75c0.47,0.14,0.93,0.28,1.4,0.41c-0.67-0.81-0.2-2-0.29-2.92
				c0.03-0.19,0.07-0.38,0.13-0.56c0.16-0.34-0.06-0.38-0.66-0.12c0.02-0.09,1.44,1.07,1.6,1.25c1.32,1.5,1.82,4.1,1.15,6.01
				c-0.9,2.52-4.73,0.07-5.76-1.39c-1.13-1.6-1.6-5.85,0.81-6.68c1.95-0.67,4.53,1.76,4.67,3.55c0.08,1.06-0.85,3.45-2.13,1.9
				c-0.56-0.68-0.43-2.35-0.42-3.19c0.01-0.67,0.36-1.56,0.27-2.19c0.06-0.26,0.16-0.51,0.31-0.75c-1.21-0.12-1.4,0.1-0.56,0.65
				c0.44,1.04,0.73,1.97,0.75,3.13c0,0.21-0.37,2.07-0.39,2.04c0.36-0.09,0.72-0.17,1.08-0.26c-0.17-0.27-0.27-0.56-0.31-0.87
				c-0.18-0.85-0.12-2.92,0.76-3.4C69.86,35.8,66.8,35.04,65.58,35.71L65.58,35.71z"/>
		</g>
		<g>
			<path d="M66.39,37.76c-1.69,0.33-2.83,1.35-2.91,3.09c-0.07,1.33,0.48,2.76,1.7,3.4c1.78,0.94,4.74,0.31,5.51-1.67
				c0.3-0.79,0.5-1.96,0.33-2.8c-0.2-1-0.98-1.63-1.84-2.08c-0.76-0.4-1.83-0.27-2.58,0.12c-0.47,0.24-1.21,0.97-0.43,1.38
				c1.03,0.54,1.33,1.19,1.15,2.35c-0.05,0.31-0.1,0.63-0.19,0.93c-0.19,0.64-0.51,0.55,0.7,0.21c0.31-0.09,0.31,0.18,0.22-0.01
				c-0.01-0.02-0.25-0.21-0.26-0.22c-0.46-0.47-0.61-1.21-0.64-1.84c-0.01-0.31,0.01-0.61,0.11-0.9c0.04-0.11,0.12-0.25,0.14-0.34
				c0.06-0.32,0.61-0.03-0.68,0.22c0.53-0.1,1.81-0.48,1.67-1.25C68.26,37.6,66.89,37.66,66.39,37.76L66.39,37.76z"/>
		</g>
		<g>
			<path d="M95.31,67.68c-0.13,0.15-0.26,0.31-0.39,0.46c1.17-0.05,2.34-0.1,3.51-0.15c-2.07-5.38-0.13-13.5,0.31-19.18
				c0.31-3.98,0.64-7.95,1.3-11.89c0.35-2.1,0.68-6.31,2.47-7.85c1.59-1.37-1.92-1.62-2.83-0.84c-4.19,3.6-3.9,12.77-4.33,17.66
				c-0.33,3.69-0.57,7.39-0.84,11.09c-0.3,4.05-1.24,7.8,0.24,11.66c0.47,1.22,2.88,0.6,3.51-0.15c0.13-0.15,0.26-0.31,0.39-0.46
				C99.7,66.78,96.07,66.76,95.31,67.68L95.31,67.68z"/>
		</g>
		<g>
			<path d="M104.39,27.19c-0.79-0.67-1.37-1.49-2.33-1.93c-0.84-0.39-2.19-0.29-2.92,0.33c-1.77,1.52-3.22,5.16-2.3,7.48
				c1.02,2.55,5.11,1.15,6.24-0.58c1.31-2.01,0.68-6.03-1.17-7.51c-1.98-1.6-5.45-1.29-7.12,0.63c-1.32,1.51-2.2,4.66-0.69,6.32
				c1.69,1.85,5.36,1.83,7.54,1.12c2.91-0.94,3.65-3.2,2.96-6c-0.57-2.28-2.2-3.77-4.64-3.58c-3.87,0.3-6.97,5.41-5.77,9.09
				c0.76,2.32,4.11,2.63,6.14,2.43c2.8-0.28,5.05-2.06,5.16-5.02c0.12-3.21-1.86-5-4.92-5.27c-2.43-0.21-5.68,0.31-7.07,2.55
				c-1.11,1.78-2.1,5.12,0,6.54c2.04,1.38,5.4,1.35,7.57,0.31c5.87-2.8-0.24-12.68-5.94-9.5c-1.98,1.11-3.03,4.48-2.68,6.64
				c0.51,3.1,5.02,2.73,7.2,2.12c0.58-0.16,1.44-0.67,1.08-1.36c-0.36-0.68-1.86-0.38-2.38-0.24c-3.2,0.89-2.19-3.38-1.52-4.91
				c0.11-0.25,0.39-0.59,0.44-0.84c0.03-0.04,0.06-0.08,0.09-0.12c0.26-0.29,0.07-0.24-0.57,0.16c0.03-0.1,1.56,1.11,1.69,1.25
				c0.81,0.93,1.12,2.42,1.18,3.63c0.07,1.42-0.5,2.13-1.94,1.84c-1.65-0.33-1.95-1.37-1.65-2.91c0.2-1.01,0.56-2.63,1.58-3.1
				c1.41-0.65,3.27,0.12,3.82,1.5c0.46,1.16,0.51,2.76-0.07,3.88c-0.61,1.18-2.22,1.26-3.18,0.3c-1.29-1.28-0.23-4.21,0.47-5.54
				c0.21-0.4,0.53-0.73,0.75-1.12c0.04-0.07,0.39-0.35,0.39-0.38c0.02-0.02,0.04-0.03,0.06-0.05c0.22-0.16,0.04-0.15-0.54,0.03
				c0.05,0.18,0.74,0.49,0.9,0.7c0.44,0.57,0.61,1.38,0.75,2.07c0.21,1.09,0.52,2.93-0.86,3.32c-1.06,0.3-2.65-0.34-3.02-1.38
				c-0.33-0.94-0.02-3.32,0.86-3.98c1.14-0.86-0.03-0.14,0.3-0.06c0.42,0.1,0.82,0.65,1.03,1.01c0.43,0.72,0.52,1.55,0.58,2.37
				c0.07,0.9,0,1.68-0.14,2.55c-0.06,0.09-0.12,0.19-0.17,0.28c-0.43,0.52-0.1,0.59,0.97,0.21c-0.03,0.05-0.23-1.2-0.23-1.25
				c0-1.53,0.43-3.77,1.64-4.8c-0.97,0.11-1.95,0.22-2.92,0.33c0.76,0.35,1.25,1.02,1.88,1.56c0.64,0.55,1.61,0.49,2.38,0.24
				C103.63,28.44,105.02,27.73,104.39,27.19L104.39,27.19z"/>
		</g>
		<g>
			<path d="M87.66,85.42c4.61,13.64,9.19,27.32,12.76,41.28c3.56,13.93,5.15,28.13,7.94,42.2c0.25,1.28,3.93,0.61,3.68-0.66
				c-2.8-14.07-4.38-28.28-7.94-42.2c-3.57-13.96-8.15-27.64-12.76-41.28C90.9,83.47,87.27,84.27,87.66,85.42L87.66,85.42z"/>
		</g>
	</g>
</g>
</svg>
